<svg fill="#E54560" xmlns="http://www.w3.org/2000/svg" xmlns:xlink="http://www.w3.org/1999/xlink" version="1.1" x="0px" y="0px" viewBox="0 0 595.28 596" enable-background="new 0 0 595.28 596" xml:space="preserve"><path d="M422.394,245.722c-0.369-0.17-0.627-0.287-0.627-0.287l0.006-0.006c-14.295-6.691-29.234-14.453-43.436-23.242  c-14.529-8.992-28.279-13.557-40.863-13.557c-19.451,0-31.947,10.387-39.247,19.715c-7.3-9.328-19.796-19.715-39.247-19.715  c-12.584,0-26.334,4.564-40.863,13.557c-28.771,17.799-60.555,31.443-83.79,40.268c-16.954,6.883-37.12,14.529-55.844,20.24  l1.799,1.857c66.12,68.229,137.718,102.818,212.79,102.818c127.717,0,218.707-99.215,222.516-103.439l1.212-1.342  c-26.264-8.037-55.322-19.844-74.31-27.986C436.044,251.896,429.318,248.948,422.394,245.722z M293.821,303.095  c-53.876,0-99.89-6.475-134.496-13.697c6.415,0.773,13.176,1.547,20.253,2.291h237.848  C376.626,299.192,335.312,303.095,293.821,303.095z"></path></svg>